<?xml version="1.0" encoding="UTF-8"?>
<svg version="1.1" xmlns="http://www.w3.org/2000/svg" width="256" height="256">
<path d="M0 0 C4.29 0 8.58 0 13 0 C13.495 0.99 13.495 0.99 14 2 C15.89533342 2.46523063 15.89533342 2.46523063 18.0625 2.625 C19.361875 2.74875 20.66125 2.8725 22 3 C22 3.66 22 4.32 22 5 C23.98 5 25.96 5 28 5 C28.495 5.99 28.495 5.99 29 7 C29.99 7.2475 29.99 7.2475 31 7.5 C31.99 7.7475 31.99 7.7475 33 8 C33.495 8.99 33.495 8.99 34 10 C35.33076989 10.34342449 36.66431979 10.67619874 38 11 C39.33333333 12.33333333 40.66666667 13.66666667 42 15 C44.06874034 15.6425235 44.06874034 15.6425235 46 16 C46 16.99 46 17.98 46 19 C46.99 19 47.98 19 49 19 C50.6875 20.375 50.6875 20.375 52 22 C52 22.66 52 23.32 52 24 C52.66 24 53.32 24 54 24 C54 23.34 54 22.68 54 22 C55.3125 20.375 55.3125 20.375 57 19 C57.99 19 58.98 19 60 19 C60 18.01 60 17.02 60 16 C60.61875 15.87625 61.2375 15.7525 61.875 15.625 C64.19120832 15.12802644 64.19120832 15.12802644 66 13 C68 11 68 11 70.0625 10.5 C70.701875 10.335 71.34125 10.17 72 10 C72.33 9.34 72.66 8.68 73 8 C74.33333333 7.66666667 75.66666667 7.33333333 77 7 C77.33 6.34 77.66 5.68 78 5 C79.98 5 81.96 5 84 5 C84 4.34 84 3.68 84 3 C87.07617188 2.70703125 87.07617188 2.70703125 90.15234375 2.4140625 C90.76207031 2.27742188 91.37179688 2.14078125 92 2 C92.33 1.34 92.66 0.68 93 0 C96.96 0 100.92 0 105 0 C105.33 0.66 105.66 1.32 106 2 C108.32156597 2.40729228 110.6568787 2.74438677 113 3 C113 3.66 113 4.32 113 5 C114.65 5.33 116.3 5.66 118 6 C118 6.66 118 7.32 118 8 C118.99 8 119.98 8 121 8 C121 8.99 121 9.98 121 11 C121.99 11 122.98 11 124 11 C124 12.65 124 14.3 124 16 C124.99 16.33 125.98 16.66 127 17 C127 18.65 127 20.3 127 22 C127.66 22 128.32 22 129 22 C129.33 25.63 129.66 29.26 130 33 C130.66 33 131.32 33 132 33 C132 39.93 132 46.86 132 54 C131.01 54.495 131.01 54.495 130 55 C130 59.62 130 64.24 130 69 C132.31 69 134.62 69 137 69 C137.33 69.66 137.66 70.32 138 71 C138.99 71.165 139.98 71.33 141 71.5 C141.99 71.665 142.98 71.83 144 72 C144.33 72.66 144.66 73.32 145 74 C147.02463255 74.65213292 147.02463255 74.65213292 149 75 C149 75.66 149 76.32 149 77 C150.32 77 151.64 77 153 77 C153 77.99 153 78.98 153 80 C154.65 80 156.3 80 158 80 C158 80.99 158 81.98 158 83 C158.99 83 159.98 83 161 83 C162.6875 84.375 162.6875 84.375 164 86 C164 86.66 164 87.32 164 88 C164.66 88 165.32 88 166 88 C167.625 89.3125 167.625 89.3125 169 91 C169 91.99 169 92.98 169 94 C169.99 94 170.98 94 172 94 C172.12375 94.804375 172.2475 95.60875 172.375 96.4375 C172.58125 97.283125 172.7875 98.12875 173 99 C173.66 99.33 174.32 99.66 175 100 C175 107.26 175 114.52 175 122 C174.01 122.495 174.01 122.495 173 123 C172.34444881 125.52733235 172.34444881 125.52733235 172 128 C171.01 128 170.02 128 169 128 C169 128.99 169 129.98 169 131 C167.625 132.6875 167.625 132.6875 166 134 C165.34 134 164.68 134 164 134 C164 134.66 164 135.32 164 136 C162.6875 137.625 162.6875 137.625 161 139 C160.01 139 159.02 139 158 139 C158 139.99 158 140.98 158 142 C156.35 142 154.7 142 153 142 C153 142.99 153 143.98 153 145 C151.68 145 150.36 145 149 145 C149 145.66 149 146.32 149 147 C148.360625 147.12375 147.72125 147.2475 147.0625 147.375 C146.381875 147.58125 145.70125 147.7875 145 148 C144.67 148.66 144.34 149.32 144 150 C142 150.33333333 140 150.66666667 138 151 C137.67 151.66 137.34 152.32 137 153 C134.69 153 132.38 153 130 153 C130 157.62 130 162.24 130 167 C130.66 167.33 131.32 167.66 132 168 C132 174.93 132 181.86 132 189 C131.34 189 130.68 189 130 189 C129.67 192.63 129.34 196.26 129 200 C128.34 200 127.68 200 127 200 C127 201.65 127 203.3 127 205 C126.01 205.33 125.02 205.66 124 206 C124 207.65 124 209.3 124 211 C123.01 211 122.02 211 121 211 C121 211.99 121 212.98 121 214 C120.01 214 119.02 214 118 214 C117.67 214.99 117.34 215.98 117 217 C115.68 217 114.36 217 113 217 C113 217.66 113 218.32 113 219 C110.36 219.33 107.72 219.66 105 220 C105 220.66 105 221.32 105 222 C101.37 222 97.74 222 94 222 C93.67 221.34 93.34 220.68 93 220 C90.87423218 219.53348793 90.87423218 219.53348793 88.4375 219.375 C87.61121094 219.30023438 86.78492188 219.22546875 85.93359375 219.1484375 C84.97646484 219.07496094 84.97646484 219.07496094 84 219 C84 218.34 84 217.68 84 217 C82.02 217 80.04 217 78 217 C78 216.01 78 215.02 78 214 C76.35 214 74.7 214 73 214 C72.67 213.34 72.34 212.68 72 212 C70.66923011 211.65657551 69.33568021 211.32380126 68 211 C66.66666667 209.66666667 65.33333333 208.33333333 64 207 C61.93125966 206.3574765 61.93125966 206.3574765 60 206 C60 205.01 60 204.02 60 203 C59.01 203 58.02 203 57 203 C55.3125 201.625 55.3125 201.625 54 200 C54 199.34 54 198.68 54 198 C53.34 198 52.68 198 52 198 C52 198.66 52 199.32 52 200 C50.6875 201.625 50.6875 201.625 49 203 C48.01 203 47.02 203 46 203 C46 203.99 46 204.98 46 206 C45.38125 206.12375 44.7625 206.2475 44.125 206.375 C41.80879168 206.87197356 41.80879168 206.87197356 40 209 C38 211 38 211 35.9375 211.5 C35.298125 211.665 34.65875 211.83 34 212 C33.67 212.66 33.34 213.32 33 214 C31.35 214 29.7 214 28 214 C28 214.99 28 215.98 28 217 C26.02 217 24.04 217 22 217 C22 217.66 22 218.32 22 219 C21.36191406 219.04898438 20.72382812 219.09796875 20.06640625 219.1484375 C18.82697266 219.26058594 18.82697266 219.26058594 17.5625 219.375 C16.73878906 219.44460937 15.91507812 219.51421875 15.06640625 219.5859375 C14.38449219 219.72257813 13.70257813 219.85921875 13 220 C12.67 220.66 12.34 221.32 12 222 C8.37 222 4.74 222 1 222 C1 221.34 1 220.68 1 220 C-1.64 219.67 -4.28 219.34 -7 219 C-7 218.34 -7 217.68 -7 217 C-8.65 216.67 -10.3 216.34 -12 216 C-12 215.34 -12 214.68 -12 214 C-12.99 214 -13.98 214 -15 214 C-15 213.01 -15 212.02 -15 211 C-15.99 211 -16.98 211 -18 211 C-18 209.35 -18 207.7 -18 206 C-18.99 206 -19.98 206 -21 206 C-21 204.02 -21 202.04 -21 200 C-21.66 200 -22.32 200 -23 200 C-23.33 196.37 -23.66 192.74 -24 189 C-24.66 189 -25.32 189 -26 189 C-26 182.07 -26 175.14 -26 168 C-25.34 167.67 -24.68 167.34 -24 167 C-24 162.38 -24 157.76 -24 153 C-26.31 153 -28.62 153 -31 153 C-31.33 152.34 -31.66 151.68 -32 151 C-32.99 150.835 -33.98 150.67 -35 150.5 C-35.99 150.335 -36.98 150.17 -38 150 C-38.495 149.01 -38.495 149.01 -39 148 C-41.02463255 147.34786708 -41.02463255 147.34786708 -43 147 C-43 146.34 -43 145.68 -43 145 C-44.32 145 -45.64 145 -47 145 C-47 144.01 -47 143.02 -47 142 C-48.65 142 -50.3 142 -52 142 C-52 141.01 -52 140.02 -52 139 C-52.99 139 -53.98 139 -55 139 C-56.6875 137.625 -56.6875 137.625 -58 136 C-58 135.34 -58 134.68 -58 134 C-58.66 134 -59.32 134 -60 134 C-61.625 132.6875 -61.625 132.6875 -63 131 C-63 130.01 -63 129.02 -63 128 C-63.99 128 -64.98 128 -66 128 C-66.12375 127.195625 -66.2475 126.39125 -66.375 125.5625 C-66.58125 124.716875 -66.7875 123.87125 -67 123 C-67.66 122.67 -68.32 122.34 -69 122 C-69 114.74 -69 107.48 -69 100 C-68.01 99.505 -68.01 99.505 -67 99 C-66.34444881 96.47266765 -66.34444881 96.47266765 -66 94 C-65.01 94 -64.02 94 -63 94 C-63 93.01 -63 92.02 -63 91 C-61.625 89.3125 -61.625 89.3125 -60 88 C-59.34 88 -58.68 88 -58 88 C-58 87.34 -58 86.68 -58 86 C-56.6875 84.375 -56.6875 84.375 -55 83 C-54.01 83 -53.02 83 -52 83 C-52 82.01 -52 81.02 -52 80 C-50.35 80 -48.7 80 -47 80 C-47 79.01 -47 78.02 -47 77 C-45.68 77 -44.36 77 -43 77 C-43 76.34 -43 75.68 -43 75 C-42.0409375 74.814375 -42.0409375 74.814375 -41.0625 74.625 C-40.0415625 74.315625 -40.0415625 74.315625 -39 74 C-38.67 73.34 -38.34 72.68 -38 72 C-36 71.66666667 -34 71.33333333 -32 71 C-31.67 70.34 -31.34 69.68 -31 69 C-28.69 69 -26.38 69 -24 69 C-24 64.38 -24 59.76 -24 55 C-24.99 54.505 -24.99 54.505 -26 54 C-26 47.07 -26 40.14 -26 33 C-25.34 33 -24.68 33 -24 33 C-23.67 29.37 -23.34 25.74 -23 22 C-22.34 22 -21.68 22 -21 22 C-21 20.02 -21 18.04 -21 16 C-20.01 16 -19.02 16 -18 16 C-18 14.35 -18 12.7 -18 11 C-17.01 11 -16.02 11 -15 11 C-15 10.01 -15 9.02 -15 8 C-14.01 8 -13.02 8 -12 8 C-11.67 7.01 -11.34 6.02 -11 5 C-9.68 5 -8.36 5 -7 5 C-7 4.34 -7 3.68 -7 3 C-4.69 2.34 -2.38 1.68 0 1 C0 0.67 0 0.34 0 0 Z M2 14 C1.67 14.99 1.34 15.98 1 17 C-0.65 17 -2.3 17 -4 17 C-4 17.99 -4 18.98 -4 20 C-4.99 20.33 -5.98 20.66 -7 21 C-7 21.99 -7 22.98 -7 24 C-7.66 24 -8.32 24 -9 24 C-9 26.97 -9 29.94 -9 33 C-9.99 33.33 -10.98 33.66 -12 34 C-12 40.93 -12 47.86 -12 55 C-11.01 55.33 -10.02 55.66 -9 56 C-9.33 58.64 -9.66 61.28 -10 64 C-7.525 63.505 -7.525 63.505 -5 63 C-5 62.34 -5 61.68 -5 61 C-0.71 61 3.58 61 8 61 C8 60.67 8 60.34 8 60 C9.46373047 59.94392578 9.46373047 59.94392578 10.95703125 59.88671875 C12.86548828 59.78810547 12.86548828 59.78810547 14.8125 59.6875 C16.07707031 59.62949219 17.34164062 59.57148437 18.64453125 59.51171875 C21.92672296 59.26332016 21.92672296 59.26332016 23.94921875 57.64453125 C25.26921438 55.9039261 25.26921438 55.9039261 25 53 C25.66 53 26.32 53 27 53 C27.33 52.01 27.66 51.02 28 50 C28.66 49.67 29.32 49.34 30 49 C30 48.01 30 47.02 30 46 C30.99 45.67 31.98 45.34 33 45 C33 44.34 33 43.68 33 43 C33.99 42.67 34.98 42.34 36 42 C36 41.34 36 40.68 36 40 C36.66 40 37.32 40 38 40 C39.66666667 38.66666667 39.66666667 38.66666667 41 37 C41 36.34 41 35.68 41 35 C41.99 34.67 42.98 34.34 44 34 C43.505 33.01 43.505 33.01 43 32 C42.34 32 41.68 32 41 32 C41 31.34 41 30.68 41 30 C38.09451118 27.95830515 36.59857954 27 33 27 C32.505 25.515 32.505 25.515 32 24 C30.16116119 21.71271266 30.16116119 21.71271266 27.375 21.875 C26.59125 21.91625 25.8075 21.9575 25 22 C25 21.01 25 20.02 25 19 C23.35 19 21.7 19 20 19 C20 18.34 20 17.68 20 17 C17.69 17 15.38 17 13 17 C12.67 16.01 12.34 15.02 12 14 C8.7 14 5.4 14 2 14 Z M94 14 C93.67 14.99 93.34 15.98 93 17 C90.69 17 88.38 17 86 17 C86 17.66 86 18.32 86 19 C84.35 19 82.7 19 81 19 C81 19.99 81 20.98 81 22 C80.236875 21.938125 79.47375 21.87625 78.6875 21.8125 C75.9794658 21.75501691 75.9794658 21.75501691 74.1875 23.375 C72.8033278 24.93368783 72.8033278 24.93368783 73 27 C72.236875 27.12375 71.47375 27.2475 70.6875 27.375 C67.79732864 27.88102792 67.79732864 27.88102792 65 30 C65 30.66 65 31.32 65 32 C64.01 32.33 63.02 32.66 62 33 C62.33 33.66 62.66 34.32 63 35 C63.66 35 64.32 35 65 35 C65.33 35.99 65.66 36.98 66 38 C66.66 38.33 67.32 38.66 68 39 C68.66 39.33 69.32 39.66 70 40 C70.33 40.99 70.66 41.98 71 43 C71.66 43 72.32 43 73 43 C73 43.99 73 44.98 73 46 C73.99 46 74.98 46 76 46 C76 46.99 76 47.98 76 49 C76.66 49.33 77.32 49.66 78 50 C78.33 50.99 78.66 51.98 79 53 C79.66 53 80.32 53 81 53 C81.12375 53.61875 81.2475 54.2375 81.375 54.875 C81.87197356 57.19120832 81.87197356 57.19120832 84 59 C86.36509361 59.30059943 88.74441881 59.49515012 91.125 59.625 C92.40632813 59.69976562 93.68765625 59.77453125 95.0078125 59.8515625 C95.99523437 59.90054688 96.98265625 59.94953125 98 60 C98 60.33 98 60.66 98 61 C102.29 61 106.58 61 111 61 C111.33 61.99 111.66 62.98 112 64 C113.32 64 114.64 64 116 64 C115.505 60.04 115.505 60.04 115 56 C115.99 55.67 116.98 55.34 118 55 C118 48.07 118 41.14 118 34 C117.01 33.67 116.02 33.34 115 33 C115 30.03 115 27.06 115 24 C114.34 24 113.68 24 113 24 C112.505 22.02 112.505 22.02 112 20 C111.34 20 110.68 20 110 20 C110 19.01 110 18.02 110 17 C108.35 17 106.7 17 105 17 C104.505 15.515 104.505 15.515 104 14 C100.7 14 97.4 14 94 14 Z M52 43 C52 43.99 52 44.98 52 46 C51.01 46 50.02 46 49 46 C49 46.66 49 47.32 49 48 C48.01 48.33 47.02 48.66 46 49 C46 49.66 46 50.32 46 51 C45.34 51 44.68 51 44 51 C44 51.99 44 52.98 44 54 C43.01 54.33 42.02 54.66 41 55 C41 55.33 41 55.66 41 56 C48.92 56 56.84 56 65 56 C64.67 55.34 64.34 54.68 64 54 C63.34 54 62.68 54 62 54 C62 53.01 62 52.02 62 51 C61.34 51 60.68 51 60 51 C59.67 50.01 59.34 49.02 59 48 C58.34 48 57.68 48 57 48 C56.67 47.01 56.34 46.02 56 45 C53.99983534 43.79117904 53.99983534 43.79117904 52 43 Z M25.72776794 75.20599365 C24.81204363 77.14066048 24.81204363 77.14066048 25 80 C24.34 80 23.68 80 23 80 C23 81.32 23 82.64 23 84 C22.01 84.33 21.02 84.66 20 85 C18.0549 87.91765 17.54723683 89.62537285 17 93 C16.34 93 15.68 93 15 93 C15 94.65 15 96.3 15 98 C14.01 98 13.02 98 12 98 C11.814375 99.2065625 11.814375 99.2065625 11.625 100.4375 C11.315625 101.7059375 11.315625 101.7059375 11 103 C10.01 103.495 10.01 103.495 9 104 C9 105.65 9 107.3 9 109 C8.34 109 7.68 109 7 109 C7 110.32 7 111.64 7 113 C7.66 113 8.32 113 9 113 C9 114.65 9 116.3 9 118 C9.66 118.33 10.32 118.66 11 119 C11.72159424 120.64363134 12.39351421 122.31050386 13 124 C13.66 124 14.32 124 15 124 C15 125.65 15 127.3 15 129 C15.66 129 16.32 129 17 129 C17.103125 129.7425 17.20625 130.485 17.3125 131.25 C18.04933797 134.1973519 18.94799142 135.78383074 21 138 C21.66 138 22.32 138 23 138 C22.67 138.99 22.34 139.98 22 141 C22.99 141.33 23.98 141.66 25 142 C25.0825 142.721875 25.165 143.44375 25.25 144.1875 C26.23183441 147.86937902 27.1503646 149.4163983 30 152 C33.45777671 152.73118366 36.8610045 152.62883868 40.3828125 152.55859375 C41.39342743 152.55626236 42.40404236 152.55393097 43.44528198 152.55152893 C45.57867896 152.54179449 47.71205019 152.52001448 49.84521484 152.48706055 C53.11985283 152.43757778 56.39299039 152.42557602 59.66796875 152.41992188 C61.7395994 152.40583902 63.81121696 152.38963575 65.8828125 152.37109375 C66.86613556 152.36573105 67.84945862 152.36036835 68.86257935 152.35484314 C69.77047211 152.33885574 70.67836487 152.32286835 71.61376953 152.30639648 C72.81478806 152.29043678 72.81478806 152.29043678 74.04006958 152.27415466 C76.23363049 152.16792461 76.23363049 152.16792461 78 150 C78 148.68 78 147.36 78 146 C78.99 145.67 79.98 145.34 81 145 C81 144.01 81 143.02 81 142 C81.99 141.67 82.98 141.34 84 141 C83.67 140.01 83.34 139.02 83 138 C83.99 137.67 84.98 137.34 86 137 C87.9451 134.08235 88.45276317 132.37462715 89 129 C89.66 129 90.32 129 91 129 C91 127.35 91 125.7 91 124 C91.99 123.67 92.98 123.34 94 123 C95.1500831 121.03327085 95.1500831 121.03327085 96 119 C96.33 118.67 96.66 118.34 97 118 C97.04063832 116.33382885 97.042721 114.66611905 97 113 C97.66 113 98.32 113 99 113 C99 111.68 99 110.36 99 109 C98.34 109 97.68 109 97 109 C97 107.35 97 105.7 97 104 C96.34 103.67 95.68 103.34 95 103 C94.27840576 101.35636866 93.60648579 99.68949614 93 98 C92.34 98 91.68 98 91 98 C91 96.35 91 94.7 91 93 C90.34 93 89.68 93 89 93 C88.896875 92.2575 88.79375 91.515 88.6875 90.75 C87.95066203 87.8026481 87.05200858 86.21616926 85 84 C84.34 84 83.68 84 83 84 C83.33 83.01 83.66 82.02 84 81 C83.01 80.67 82.02 80.34 81 80 C80.9175 79.278125 80.835 78.55625 80.75 77.8125 C79.76977532 74.13665744 78.83480129 72.58867942 76 70 C72.58497793 69.21511948 69.21518203 69.2517716 65.72265625 69.265625 C64.71915634 69.25609802 63.71565643 69.24657104 62.68174744 69.23675537 C60.56105977 69.22459777 58.44026362 69.22542375 56.31958008 69.23828125 C53.07635985 69.24995013 49.83835331 69.19775119 46.59570312 69.140625 C44.53385783 69.13673958 42.47200131 69.13661457 40.41015625 69.140625 C39.44231705 69.12018127 38.47447784 69.09973755 37.47731018 69.07867432 C31.53430807 69.18088009 28.87960587 70.03595893 25.72776794 75.20599365 Z M94 73 C94.33 73.99 94.66 74.98 95 76 C95.66 76 96.32 76 97 76 C97.185625 77.11375 97.185625 77.11375 97.375 78.25 C97.95486701 80.80141485 98.73708739 82.7267573 100 85 C100.99 85 101.98 85 103 85 C103 86.65 103 88.3 103 90 C103.66 90 104.32 90 105 90 C105.33 91.65 105.66 93.3 106 95 C106.33 95 106.66 95 107 95 C107 92.69 107 90.38 107 88 C107.99 88 108.98 88 110 88 C110.144375 86.7625 110.28875 85.525 110.4375 84.25 C110.78688502 81.43495501 111.20379366 78.7298503 112 76 C109.35541621 74.67770811 107.32238699 74.90322806 104.375 74.9375 C102.87066406 74.95103516 102.87066406 74.95103516 101.3359375 74.96484375 C100.17964844 74.98224609 100.17964844 74.98224609 99 75 C99 74.34 99 73.68 99 73 C97.35 73 95.7 73 94 73 Z M7 73 C7 73.66 7 74.32 7 75 C6.22914062 74.98839844 5.45828125 74.97679688 4.6640625 74.96484375 C3.66117188 74.95582031 2.65828125 74.94679688 1.625 74.9375 C0.12839844 74.92009766 0.12839844 74.92009766 -1.3984375 74.90234375 C-3.98432453 74.81993398 -3.98432453 74.81993398 -6 76 C-5.855625 76.495 -5.71125 76.99 -5.5625 77.5 C-4.78005593 80.97752922 -4.41305236 84.45955123 -4 88 C-3.01 88 -2.02 88 -1 88 C-1 90.31 -1 92.62 -1 95 C-0.34 94.67 0.32 94.34 1 94 C1 92.68 1 91.36 1 90 C1.66 90 2.32 90 3 90 C3 88.35 3 86.7 3 85 C3.99 85 4.98 85 6 85 C7.64826111 82.03312999 8.44271087 79.34373475 9 76 C9.66 76 10.32 76 11 76 C11.33 75.01 11.66 74.02 12 73 C10.35 73 8.7 73 7 73 Z M-23 81 C-23 81.33 -23 81.66 -23 82 C-24.98 82.66 -26.96 83.32 -29 84 C-29 84.66 -29 85.32 -29 86 C-30.65 86 -32.3 86 -34 86 C-34.33 86.99 -34.66 87.98 -35 89 C-36.32 89 -37.64 89 -39 89 C-39 89.66 -39 90.32 -39 91 C-39.763125 91.12375 -40.52625 91.2475 -41.3125 91.375 C-44.20267136 91.88102792 -44.20267136 91.88102792 -47 94 C-47 94.66 -47 95.32 -47 96 C-47.99 96.33 -48.98 96.66 -50 97 C-50 97.66 -50 98.32 -50 99 C-50.66 99 -51.32 99 -52 99 C-54.84450614 102.71973879 -55.3227506 105.37390802 -55 110 C-55.66 110 -56.32 110 -57 110 C-57 110.66 -57 111.32 -57 112 C-56.34 112 -55.68 112 -55 112 C-55.061875 112.886875 -55.12375 113.77375 -55.1875 114.6875 C-54.97935526 118.36472369 -54.21793417 120.09962455 -52 123 C-51.34 123 -50.68 123 -50 123 C-49.67 123.99 -49.34 124.98 -49 126 C-48.34 126 -47.68 126 -47 126 C-47 126.66 -47 127.32 -47 128 C-44.09451118 130.04169485 -42.59857954 131 -39 131 C-39 131.66 -39 132.32 -39 133 C-38.0409375 133.185625 -38.0409375 133.185625 -37.0625 133.375 C-36.381875 133.58125 -35.70125 133.7875 -35 134 C-34.67 134.66 -34.34 135.32 -34 136 C-32.35 136 -30.7 136 -29 136 C-28.67 136.99 -28.34 137.98 -28 139 C-26.35 139.33 -24.7 139.66 -23 140 C-23 140.33 -23 140.66 -23 141 C-21.35 141 -19.7 141 -18 141 C-17.814375 139.081875 -17.814375 139.081875 -17.625 137.125 C-17.25 133.25 -17.25 133.25 -15 131 C-14.83318891 127.91652174 -14.83318891 127.91652174 -15 125 C-14.34 125 -13.68 125 -13 125 C-13 122.69 -13 120.38 -13 118 C-12.01 118 -11.02 118 -10 118 C-10 113.38 -10 108.76 -10 104 C-10.66 103.67 -11.32 103.34 -12 103 C-12.625 99.9375 -12.625 99.9375 -13 97 C-13.66 97 -14.32 97 -15 97 C-14.95875 96.05125 -14.9175 95.1025 -14.875 94.125 C-14.65026182 90.89755144 -14.65026182 90.89755144 -17 89 C-17.56520003 86.34462628 -17.73788198 83.70855287 -18 81 C-19.65 81 -21.3 81 -23 81 Z M124 81 C123.814375 82.9490625 123.814375 82.9490625 123.625 84.9375 C123.4140625 87.15234375 123.4140625 87.15234375 123 89 C122.01 89.495 122.01 89.495 121 90 C121 92.31 121 94.62 121 97 C120.34 97 119.68 97 119 97 C118.87625 97.969375 118.7525 98.93875 118.625 99.9375 C118.41875 100.948125 118.2125 101.95875 118 103 C117.34 103.33 116.68 103.66 116 104 C116 108.62 116 113.24 116 118 C116.66 118.33 117.32 118.66 118 119 C118.625 122.0625 118.625 122.0625 119 125 C119.66 125 120.32 125 121 125 C121 127.31 121 129.62 121 132 C121.66 132.33 122.32 132.66 123 133 C123.59355614 135.64860427 123.74209269 138.29197322 124 141 C125.65 141 127.3 141 129 141 C129 140.67 129 140.34 129 140 C130.98 139.34 132.96 138.68 135 138 C135 137.34 135 136.68 135 136 C136.65 136 138.3 136 140 136 C140.33 135.34 140.66 134.68 141 134 C143.0625 133.375 143.0625 133.375 145 133 C145 132.34 145 131.68 145 131 C145.763125 130.87625 146.52625 130.7525 147.3125 130.625 C150.20267136 130.11897208 150.20267136 130.11897208 153 128 C153 127.34 153 126.68 153 126 C153.99 125.67 154.98 125.34 156 125 C156 124.34 156 123.68 156 123 C156.66 123 157.32 123 158 123 C160.84450614 119.28026121 161.3227506 116.62609198 161 112 C161.66 112 162.32 112 163 112 C163 111.34 163 110.68 163 110 C162.34 110 161.68 110 161 110 C161.061875 109.113125 161.12375 108.22625 161.1875 107.3125 C160.97935526 103.63527631 160.21793417 101.90037545 158 99 C157.34 99 156.68 99 156 99 C155.505 97.515 155.505 97.515 155 96 C154.34 96 153.68 96 153 96 C153 95.34 153 94.68 153 94 C150.09451118 91.95830515 148.59857954 91 145 91 C145 90.34 145 89.68 145 89 C143.68 89 142.36 89 141 89 C140.67 88.01 140.34 87.02 140 86 C138.35 86 136.7 86 135 86 C134.67 85.01 134.34 84.02 134 83 C131.525 82.505 131.525 82.505 129 82 C129 81.67 129 81.34 129 81 C127.35 81 125.7 81 124 81 Z M-9 110 C-8 112 -8 112 -8 112 Z M114 110 C115 112 115 112 115 112 Z M-1 127 C-1 129.31 -1 131.62 -1 134 C-1.99 134 -2.98 134 -4 134 C-4.144375 135.2375 -4.28875 136.475 -4.4375 137.75 C-4.78688502 140.56504499 -5.20379366 143.2701497 -6 146 C-3.35541621 147.32229189 -1.32238699 147.09677194 1.625 147.0625 C2.62789062 147.05347656 3.63078125 147.04445312 4.6640625 147.03515625 C5.43492188 147.02355469 6.20578125 147.01195312 7 147 C7 147.66 7 148.32 7 149 C8.65 149 10.3 149 12 149 C11.67 148.01 11.34 147.02 11 146 C10.34 146 9.68 146 9 146 C8.87625 145.2575 8.7525 144.515 8.625 143.75 C8.04513299 141.19858515 7.26291261 139.2732427 6 137 C5.01 137 4.02 137 3 137 C3 135.35 3 133.7 3 132 C2.34 132 1.68 132 1 132 C0.67 130.35 0.34 128.7 0 127 C-0.33 127 -0.66 127 -1 127 Z M106 127 C105.67 128.65 105.34 130.3 105 132 C104.34 132 103.68 132 103 132 C103 133.65 103 135.3 103 137 C102.01 137 101.02 137 100 137 C98.35173889 139.96687001 97.55728913 142.65626525 97 146 C96.34 146 95.68 146 95 146 C94.67 146.99 94.34 147.98 94 149 C95.65 149 97.3 149 99 149 C99 148.34 99 147.68 99 147 C99.77085937 147.01160156 100.54171875 147.02320313 101.3359375 147.03515625 C102.84027344 147.04869141 102.84027344 147.04869141 104.375 147.0625 C105.87160156 147.07990234 105.87160156 147.07990234 107.3984375 147.09765625 C109.98432453 147.18006602 109.98432453 147.18006602 112 146 C111.7834375 145.2575 111.7834375 145.2575 111.5625 144.5 C110.78005593 141.02247078 110.41305236 137.54044877 110 134 C109.01 134 108.02 134 107 134 C107 131.69 107 129.38 107 127 C106.67 127 106.34 127 106 127 Z M-10 158 C-9.67 160.64 -9.34 163.28 -9 166 C-9.99 166.33 -10.98 166.66 -12 167 C-12 174.26 -12 181.52 -12 189 C-11.01 189 -10.02 189 -9 189 C-9 191.97 -9 194.94 -9 198 C-8.34 198 -7.68 198 -7 198 C-6.67 199.32 -6.34 200.64 -6 202 C-5.34 202 -4.68 202 -4 202 C-4 202.99 -4 203.98 -4 205 C-2.35 205 -0.7 205 1 205 C1 205.99 1 206.98 1 208 C4.63 208 8.26 208 12 208 C12 207.01 12 206.02 12 205 C14.64 205 17.28 205 20 205 C20 204.34 20 203.68 20 203 C21.65 203 23.3 203 25 203 C25 202.01 25 201.02 25 200 C26.1446875 200.0928125 26.1446875 200.0928125 27.3125 200.1875 C30.0205342 200.24498309 30.0205342 200.24498309 31.8125 198.625 C33.1966722 197.06631217 33.1966722 197.06631217 33 195 C34.1446875 194.814375 34.1446875 194.814375 35.3125 194.625 C38.20267136 194.11897208 38.20267136 194.11897208 41 192 C41 191.34 41 190.68 41 190 C41.99 189.67 42.98 189.34 44 189 C43.505 188.01 43.505 188.01 43 187 C42.34 187 41.68 187 41 187 C40.505 185.515 40.505 185.515 40 184 C39.34 183.67 38.68 183.34 38 183 C36 182 36 182 35 179 C34.34 179 33.68 179 33 179 C32.505 177.515 32.505 177.515 32 176 C31.34 176 30.68 176 30 176 C29.505 174.02 29.505 174.02 29 172 C28.34 172 27.68 172 27 172 C27 171.01 27 170.02 27 169 C26.34 169 25.68 169 25 169 C24.87625 168.38125 24.7525 167.7625 24.625 167.125 C24.12802644 164.80879168 24.12802644 164.80879168 22 163 C18.64255888 162.75622117 18.64255888 162.75622117 14.875 162.875 C13.59367187 162.89304688 12.31234375 162.91109375 10.9921875 162.9296875 C10.00476563 162.95289063 9.01734375 162.97609375 8 163 C8 162.34 8 161.68 8 161 C3.71 161 -0.58 161 -5 161 C-5.33 160.01 -5.66 159.02 -6 158 C-7.32 158 -8.64 158 -10 158 Z M112 158 C111.67 158.99 111.34 159.98 111 161 C106.71 161 102.42 161 98 161 C98 161.66 98 162.32 98 163 C96.53626953 162.94779297 96.53626953 162.94779297 95.04296875 162.89453125 C93.77066406 162.86746094 92.49835938 162.84039062 91.1875 162.8125 C89.92292969 162.77769531 88.65835938 162.74289063 87.35546875 162.70703125 C84.07309353 162.71869946 84.07309353 162.71869946 82.05078125 164.32421875 C80.73437951 166.09394792 80.73437951 166.09394792 81 169 C80.34 169 79.68 169 79 169 C78.67 169.99 78.34 170.98 78 172 C77.01 172.495 77.01 172.495 76 173 C76 173.99 76 174.98 76 176 C75.01 176 74.02 176 73 176 C73 176.99 73 177.98 73 179 C72.01 179.33 71.02 179.66 70 180 C70 180.66 70 181.32 70 182 C69.34 182 68.68 182 68 182 C66.33333333 183.33333333 66.33333333 183.33333333 65 185 C65 185.66 65 186.32 65 187 C64.01 187.33 63.02 187.66 62 188 C62.33 188.66 62.66 189.32 63 190 C63.66 190 64.32 190 65 190 C65 190.66 65 191.32 65 192 C67.90548882 194.04169485 69.40142046 195 73 195 C73.33 195.99 73.66 196.98 74 198 C75.83883881 200.28728734 75.83883881 200.28728734 78.625 200.125 C79.40875 200.08375 80.1925 200.0425 81 200 C81 200.99 81 201.98 81 203 C82.65 203 84.3 203 86 203 C86 203.66 86 204.32 86 205 C88.64 205 91.28 205 94 205 C94 205.99 94 206.98 94 208 C97.63 208 101.26 208 105 208 C105 207.01 105 206.02 105 205 C106.65 205 108.3 205 110 205 C110 204.01 110 203.02 110 202 C110.66 202 111.32 202 112 202 C112.33 200.68 112.66 199.36 113 198 C113.66 198 114.32 198 115 198 C115 195.03 115 192.06 115 189 C115.99 188.67 116.98 188.34 118 188 C118 181.07 118 174.14 118 167 C117.01 166.67 116.02 166.34 115 166 C115.33 163.36 115.66 160.72 116 158 C114.68 158 113.36 158 112 158 Z M41 166 C41.33 166.66 41.66 167.32 42 168 C42.66 168 43.32 168 44 168 C44 168.99 44 169.98 44 171 C44.66 171 45.32 171 46 171 C46.33 171.99 46.66 172.98 47 174 C47.66 174 48.32 174 49 174 C49.33 174.99 49.66 175.98 50 177 C52.00016466 178.20882096 52.00016466 178.20882096 54 179 C55.54166642 177.62514468 55.54166642 177.62514468 57 176 C57 175.34 57 174.68 57 174 C57.99 173.67 58.98 173.34 60 173 C60 172.34 60 171.68 60 171 C60.66 171 61.32 171 62 171 C62 170.01 62 169.02 62 168 C62.99 167.67 63.98 167.34 65 167 C65 166.67 65 166.34 65 166 C57.08 166 49.16 166 41 166 Z " fill="#000000" transform="translate(75,17)"/>
<path d="M0 0 C5.94 0 11.88 0 18 0 C18 0.66 18 1.32 18 2 C19.98 2.33 21.96 2.66 24 3 C24 3.66 24 4.32 24 5 C24.86625 5.185625 24.86625 5.185625 25.75 5.375 C29.49333025 6.41481396 31.43194834 7.20878519 33.75 10.4375 C35 13 35 13 35 16 C35.66 16 36.32 16 37 16 C37.495 18.97 37.495 18.97 38 22 C38.66 22 39.32 22 40 22 C40 27.94 40 33.88 40 40 C39.34 40 38.68 40 38 40 C37.67 41.98 37.34 43.96 37 46 C36.34 46 35.68 46 35 46 C34.814375 46.86625 34.814375 46.86625 34.625 47.75 C33.58518604 51.49333025 32.79121481 53.43194834 29.5625 55.75 C27 57 27 57 24 57 C24 57.66 24 58.32 24 59 C21.03 59.495 21.03 59.495 18 60 C18 60.66 18 61.32 18 62 C12.06 62 6.12 62 0 62 C0 61.34 0 60.68 0 60 C-1.98 59.67 -3.96 59.34 -6 59 C-6 58.34 -6 57.68 -6 57 C-6.86625 56.814375 -6.86625 56.814375 -7.75 56.625 C-11.49333025 55.58518604 -13.43194834 54.79121481 -15.75 51.5625 C-17 49 -17 49 -17 46 C-17.66 46 -18.32 46 -19 46 C-19.33 44.02 -19.66 42.04 -20 40 C-20.66 40 -21.32 40 -22 40 C-22 34.06 -22 28.12 -22 22 C-21.34 22 -20.68 22 -20 22 C-19.67 20.02 -19.34 18.04 -19 16 C-18.34 16 -17.68 16 -17 16 C-16.87625 15.4225 -16.7525 14.845 -16.625 14.25 C-15.58518604 10.50666975 -14.79121481 8.56805166 -11.5625 6.25 C-9 5 -9 5 -6 5 C-6 4.34 -6 3.68 -6 3 C-4.02 2.67 -2.04 2.34 0 2 C0 1.34 0 0.68 0 0 Z M2 14 C1.67 14.66 1.34 15.32 1 16 C0.01 16.33 -0.98 16.66 -2 17 C-4.36506843 19.00121175 -4.9893322 19.96799661 -6 23 C-6.99 23.495 -6.99 23.495 -8 24 C-8 28.62 -8 33.24 -8 38 C-7.34 38.33 -6.68 38.66 -6 39 C-5.67 39.99 -5.34 40.98 -5 42 C-2.99878825 44.36506843 -2.03200339 44.9893322 1 46 C1.33 46.66 1.66 47.32 2 48 C6.62 48 11.24 48 16 48 C16.33 47.34 16.66 46.68 17 46 C17.99 45.67 18.98 45.34 20 45 C22.36506843 42.99878825 22.9893322 42.03200339 24 39 C24.66 38.67 25.32 38.34 26 38 C26 33.38 26 28.76 26 24 C25.34 23.67 24.68 23.34 24 23 C23.67 22.01 23.34 21.02 23 20 C20.99878825 17.63493157 20.03200339 17.0106678 17 16 C16.67 15.34 16.34 14.68 16 14 C11.38 14 6.76 14 2 14 Z " fill="#000000" transform="translate(119,97)"/>
<path d="M0 0 C2.97922593 -0.02683987 5.95821295 -0.04676037 8.9375 -0.0625 C9.78763672 -0.07087891 10.63777344 -0.07925781 11.51367188 -0.08789062 C12.32255859 -0.09111328 13.13144531 -0.09433594 13.96484375 -0.09765625 C14.7137085 -0.10289307 15.46257324 -0.10812988 16.23413086 -0.11352539 C18 0 18 0 19 1 C19.203125 3.21484375 19.203125 3.21484375 19.25 5.9375 C19.27578125 6.83339844 19.3015625 7.72929687 19.328125 8.65234375 C19.21984375 9.42707031 19.1115625 10.20179688 19 11 C18.01 11.66 17.02 12.32 16 13 C16 13.33 16 13.66 16 14 C13.5821288 14.10826289 11.16912444 14.18739789 8.75 14.25 C7.72712891 14.30027344 7.72712891 14.30027344 6.68359375 14.3515625 C3.22625835 14.41869523 1.35242665 14.25874361 -1.46875 12.1875 C-3.46591068 9.33441331 -3.30966724 7.40633964 -3 4 C-2.34 3.67 -1.68 3.34 -1 3 C-0.67 2.01 -0.34 1.02 0 0 Z " fill="#000000" transform="translate(28,193)"/>
<path d="M0 0 C1.79158489 -0.02696365 3.58328473 -0.04637917 5.375 -0.0625 C6.37273437 -0.07410156 7.37046875 -0.08570312 8.3984375 -0.09765625 C11 0 11 0 13 1 C13 3.97 13 6.94 13 10 C11.02 10.99 11.02 10.99 9 12 C8.67 12.66 8.34 13.32 8 14 C6.35 14 4.7 14 3 14 C3 14.66 3 15.32 3 16 C0.03 16 -2.94 16 -6 16 C-6.33 15.01 -6.66 14.02 -7 13 C-7.66 12.67 -8.32 12.34 -9 12 C-9.32523926 8.42236811 -9.42956587 6.60457419 -7.3125 3.625 C-4.61209763 1.72741996 -3.22939919 1.64117787 0 2 C0 1.34 0 0.68 0 0 Z " fill="#000000" transform="translate(210,20)"/>
<path d="M0 0 C0.74886475 0.00523682 1.49772949 0.01047363 2.26928711 0.01586914 C3.07817383 0.0190918 3.88706055 0.02231445 4.72045898 0.02563477 C5.5705957 0.03401367 6.42073242 0.04239258 7.29663086 0.05102539 C8.15063477 0.05553711 9.00463867 0.06004883 9.88452148 0.06469727 C12.00108749 0.07652166 14.11761771 0.0944577 16.23413086 0.11352539 C17.61392352 4.25290338 18.06830042 8.28092894 16.22241211 12.33618164 C15.8962793 12.92270508 15.57014648 13.50922852 15.23413086 14.11352539 C12.79596501 14.19449769 10.36048702 14.25399511 7.92163086 14.30102539 C6.88619141 14.33873047 6.88619141 14.33873047 5.82983398 14.37719727 C2.94158027 14.41905602 0.77802245 14.44332049 -1.73071289 12.92211914 C-3.11771643 10.49878842 -3.09685032 8.7661799 -3.01586914 5.98852539 C-3.00040039 5.09907227 -2.98493164 4.20961914 -2.96899414 3.29321289 C-2.72237733 0.64682482 -2.66462099 0.17130496 0 0 Z " fill="#000000" transform="translate(211.765869140625,59.886474609375)"/>
<path d="M0 0 C0.12375 0.61875 0.2475 1.2375 0.375 1.875 C0.87197356 4.19120832 0.87197356 4.19120832 3 6 C2.01 6.495 2.01 6.495 1 7 C0.7525 8.2375 0.7525 8.2375 0.5 9.5 C0.2525 10.7375 0.2525 10.7375 0 12 C-0.99 12.495 -0.99 12.495 -2 13 C-2.33 13.99 -2.66 14.98 -3 16 C-3.99 16 -4.98 16 -6 16 C-6 16.99 -6 17.98 -6 19 C-8.64 19 -11.28 19 -14 19 C-14 18.34 -14 17.68 -14 17 C-14.99 16.67 -15.98 16.34 -17 16 C-17 13.36 -17 10.72 -17 8 C-16.34 7.67 -15.68 7.34 -15 7 C-14.34786708 4.97536745 -14.34786708 4.97536745 -14 3 C-13.01 3 -12.02 3 -11 3 C-11 2.01 -11 1.02 -11 0 C-6.94952424 -1.35015859 -4.2079832 -0.62084998 0 0 Z " fill="#000000" transform="translate(207,4)"/>
<path d="M0 0 C1.33417969 0.02320313 1.33417969 0.02320313 2.6953125 0.046875 C4.875 0.25 4.875 0.25 5.875 1.25 C6.078125 3.4296875 6.078125 3.4296875 6.125 6.125 C6.15078125 7.00929687 6.1765625 7.89359375 6.203125 8.8046875 C5.875 11.25 5.875 11.25 4.546875 13.0703125 C2.875 14.25 2.875 14.25 -0.125 14.25 C-0.125 14.91 -0.125 15.57 -0.125 16.25 C-1.25 17.875 -1.25 17.875 -3.125 19.25 C-6.1875 19.5625 -6.1875 19.5625 -9.125 19.25 C-11.125 17.25 -11.125 17.25 -11.625 15.1875 C-11.79 14.548125 -11.955 13.90875 -12.125 13.25 C-12.785 12.92 -13.445 12.59 -14.125 12.25 C-13.795 11.26 -13.465 10.27 -13.125 9.25 C-12.465 9.25 -11.805 9.25 -11.125 9.25 C-11.125 7.93 -11.125 6.61 -11.125 5.25 C-10.135 5.25 -9.145 5.25 -8.125 5.25 C-8.125 4.59 -8.125 3.93 -8.125 3.25 C-5.76430638 0.02945109 -3.87165373 -0.1128762 0 0 Z " fill="#000000" transform="translate(52.125,227.75)"/>
<path d="M0 0 C3.96 0 7.92 0 12 0 C12 0.66 12 1.32 12 2 C13.65 2 15.3 2 17 2 C17 3.32 17 4.64 17 6 C17.99 6.33 18.98 6.66 20 7 C19.67 7.99 19.34 8.98 19 10 C18.34 10 17.68 10 17 10 C16.67 11.32 16.34 12.64 16 14 C13.37472811 14.05382106 10.75055287 14.09358313 8.125 14.125 C7.37863281 14.14175781 6.63226563 14.15851563 5.86328125 14.17578125 C3.90805539 14.1933959 1.95257979 14.10320189 0 14 C-2 12 -2 12 -2.1953125 9.6171875 C-2.17210938 8.71226562 -2.14890625 7.80734375 -2.125 6.875 C-2.10695313 5.96492187 -2.08890625 5.05484375 -2.0703125 4.1171875 C-2.04710938 3.41851562 -2.02390625 2.71984375 -2 2 C-1.34 2 -0.68 2 0 2 C0 1.34 0 0.68 0 0 Z " fill="#000000" transform="translate(30,172)"/>
<path d="M0 0 C1.97909398 -0.02686553 3.95828971 -0.04633375 5.9375 -0.0625 C7.03964844 -0.07410156 8.14179687 -0.08570313 9.27734375 -0.09765625 C12 0 12 0 13 1 C13.52129014 5.21304981 13.66488173 8.81477605 11.5625 12.5625 C7.7722199 14.68875469 4.25016698 14.32693592 0 14 C0 14.66 0 15.32 0 16 C-0.66 16 -1.32 16 -2 16 C-2 15.34 -2 14.68 -2 14 C-3.65 13.67 -5.3 13.34 -7 13 C-7.02688151 11.35425434 -7.04634123 9.70838587 -7.0625 8.0625 C-7.07410156 7.14597656 -7.08570312 6.22945312 -7.09765625 5.28515625 C-7 3 -7 3 -6 2 C-4.00041636 1.95919217 -1.99954746 1.95745644 0 2 C0 1.34 0 0.68 0 0 Z " fill="#000000" transform="translate(37,212)"/>
<path d="M0 0 C1.65 0 3.3 0 5 0 C5.33 0.99 5.66 1.98 6 3 C6.99 3 7.98 3 9 3 C9 6.63 9 10.26 9 14 C6.68880208 14.1953125 4.37760417 14.390625 2.06640625 14.5859375 C1.04353516 14.79089844 1.04353516 14.79089844 0 15 C-0.33 15.66 -0.66 16.32 -1 17 C-6.4180602 17.36120401 -6.4180602 17.36120401 -8.8125 15.875 C-11.00334976 12.41576354 -11.16821567 9.10541728 -10.5625 5.125 C-10.376875 4.42375 -10.19125 3.7225 -10 3 C-9.04287109 2.92652344 -9.04287109 2.92652344 -8.06640625 2.8515625 C-7.24011719 2.77679688 -6.41382813 2.70203125 -5.5625 2.625 C-4.73878906 2.55539063 -3.91507813 2.48578125 -3.06640625 2.4140625 C-2.04353516 2.20910156 -2.04353516 2.20910156 -1 2 C-0.67 1.34 -0.34 0.68 0 0 Z " fill="#000000" transform="translate(219,38)"/>
<path d="M0 0 C0.33 0 0.66 0 1 0 C1 1.98 1 3.96 1 6 C0.67 6 0.34 6 0 6 C0 4.02 0 2.04 0 0 Z " fill="#000000" transform="translate(230,64)"/>
<path d="" fill="#000000" transform="translate(0,0)"/>
<path d="" fill="#000000" transform="translate(0,0)"/>
<path d="" fill="#000000" transform="translate(0,0)"/>
<path d="" fill="#000000" transform="translate(0,0)"/>
<path d="" fill="#000000" transform="translate(0,0)"/>
</svg>
